<svg version="1.2" xmlns="http://www.w3.org/2000/svg" viewBox="0 0 800 600" width="800" height="600">
	<title>imereti-svg</title>
	<style>
		.s0 { fill: #808080;stroke: #ffffff;stroke-linecap: round;stroke-linejoin: round;stroke-width: .5 } 
	</style>
	<g id="Georgia">
		<path id="Layer" class="s0" d="m466.3 266.3l3.8 2.3 4.3 0.7 3.2-0.8 3.1-1.7 3.5-0.4 2.5 2.9-1.3 4.9-0.1 4.8-8.5 2.3-5.2 3.8-2.2 1.6-0.4 1.8-0.5 2.6 0.7 4.7-0.7 3.9-0.5 0.6-0.8 0.8-1.7 1.5-1.5 4.3-2 3.8-3.6 2.7-3 3.1-0.5 6.3-1.7 5.3-3.9 3.5-0.8 5.8-33 13.5-1.8-0.3-1.9-0.7-11.4 1-4.7 2-4.9-0.1-9.5-2-11.7 3-6.8-4.1-0.2-7.5-1.7-6.4-3.4-0.9-3.4 0.2-2.3-1-2.1-1.4-3-1.5-2.8-2.1-4-1.2-3.1-1.9-1.5-4.3-2.1-3.5-4-1-3.3 2.2-1.9 0.6-2-0.6-5.4-1-2.7-3.9 2.5-3.9 4.4-0.5 2.3-4.6-0.2-7.9 1.1-6.2 2.1-2.4 1.2-3.9 4.8-7.9 7.8-9 1.4-3.5 0.2-4.3 1-2.4 1.7-1.5 1.7-5.1 3.4-3.5 5.5-0.3 2-0.6 2.1-0.1 1 3.5v3.8l0.9 2.8 0.1 3.2 11.8-4 2.7 1.2 2.9 0.2 2.5-2.5 2.7-0.1 6.1 3.9 5.6 5.3 1.4 4.7 2.8 2.2 2.3 0.4 5.3 3 7.9-0.7 4.6-1.9 3.9-4 10.5-5.5 11.7 1.3 11.2-0.9 7.1 2.6z"/>
	</g>
	<g id="Copyright">
	</g>
</svg>